<?xml version="1.0" encoding="UTF-8" standalone="no"?>
<!-- Generator: Adobe Illustrator 23.0.6, SVG Export Plug-In . SVG Version: 6.00 Build 0)  -->

<svg
   xmlns:dc="http://purl.org/dc/elements/1.1/"
   xmlns:cc="http://creativecommons.org/ns#"
   xmlns:rdf="http://www.w3.org/1999/02/22-rdf-syntax-ns#"
   xmlns:svg="http://www.w3.org/2000/svg"
   xmlns="http://www.w3.org/2000/svg"
   xmlns:sodipodi="http://sodipodi.sourceforge.net/DTD/sodipodi-0.dtd"
   xmlns:inkscape="http://www.inkscape.org/namespaces/inkscape"
   version="1.1"
   id="Layer_1"
   x="0px"
   y="0px"
   viewBox="0 0 1307 348"
   xml:space="preserve"
   sodipodi:docname="logo.svg"
   width="1307"
   height="348"
   inkscape:version="0.92.5 (2060ec1f9f, 2020-04-08)"><metadata
   id="metadata3903"><rdf:RDF><cc:Work
       rdf:about=""><dc:format>image/svg+xml</dc:format><dc:type
         rdf:resource="http://purl.org/dc/dcmitype/StillImage" /><dc:title></dc:title></cc:Work></rdf:RDF></metadata><defs
   id="defs3901" /><sodipodi:namedview
   pagecolor="#ffffff"
   bordercolor="#666666"
   borderopacity="1"
   objecttolerance="10"
   gridtolerance="10"
   guidetolerance="10"
   inkscape:pageopacity="0"
   inkscape:pageshadow="2"
   inkscape:window-width="2560"
   inkscape:window-height="1312"
   id="namedview3899"
   showgrid="false"
   showguides="true"
   inkscape:guide-bbox="true"
   inkscape:zoom="1.4142136"
   inkscape:cx="719.91411"
   inkscape:cy="167.13057"
   inkscape:window-x="0"
   inkscape:window-y="54"
   inkscape:window-maximized="1"
   inkscape:current-layer="Layer_1"><sodipodi:guide
     position="28.284271,314.66252"
     orientation="1,0"
     id="guide3905"
     inkscape:locked="false" /><sodipodi:guide
     position="1343.5029,295.57063"
     orientation="1,0"
     id="guide3907"
     inkscape:locked="false" /></sodipodi:namedview>
<style
   type="text/css"
   id="style3828">
	.st0{fill:#E98C3B;}
	.st1{fill:#333333;}
	.st2{fill:#D6D8D8;}
</style>
<path
   class="st0"
   d="m 156.50862,22 c -26.3,0 -51,6.6 -72.699998,18.1 v 165.4 l 44.699998,-54 h 23 l -39,46 44,73 h -24 l -33.999998,-59 -15,16 v 43 h -20 V 53.1 c -37.4,28.2 -61.5,73 -61.5,123.4 0,85.3 69.2,154.5 154.499998,154.5 85.3,0 154.5,-69.2 154.5,-154.5 0,-85.3 -69.2,-154.5 -154.5,-154.5 z m 46.5,234 c 24,0 24,-25 24,-25 h 21 c 0,0 0,42 -45,42 -51,0 -48,-60 -48,-60 v -3 c 0,0 -3,-60 48,-60 45,0 45,42 45,42 h -21 c 0,0 0,-25 -24,-25 -24,0 -28,27 -28,43 v 3 c 0,16 4,43 28,43 z"
   id="path3830"
   inkscape:connector-curvature="0"
   style="fill:#e98c3b" />
<g
   id="g3858"
   transform="translate(-38.890873)">
	<path
   class="st0"
   d="m 429.5,86.5 v 41 l 36,-41 h 25 l -34,37 36,56 h -24 l -25,-43 -14,15 v 28 h -19 v -93 z"
   id="path3832"
   inkscape:connector-curvature="0"
   style="fill:#e98c3b" />
	<path
   class="st0"
   d="m 517.3,112.9 v 9.2 h 0.4 c 2.3,-3.8 5.3,-6.6 9,-8.4 3.7,-1.7 7.4,-2.6 11.3,-2.6 4.9,0 8.9,0.7 12,2 3.1,1.3 5.6,3.2 7.4,5.5 1.8,2.3 3.1,5.2 3.8,8.6 0.7,3.4 1.1,7.1 1.1,11.2 V 179 h -18.2 v -37.4 c 0,-5.5 -0.9,-9.5 -2.6,-12.2 -1.7,-2.7 -4.7,-4 -9.1,-4 -5,0 -8.5,1.5 -10.8,4.4 -2.2,2.9 -3.3,7.8 -3.3,14.5 V 179 l -16.6,0.5 v -67 z"
   id="path3834"
   inkscape:connector-curvature="0"
   style="fill:#e98c3b" />
	<path
   class="st0"
   d="m 576.5,131.6 c 1.6,-4.3 3.9,-8 6.9,-11 3,-3 6.6,-5.4 10.8,-7 4.2,-1.7 8.9,-2.5 14.1,-2.5 5.2,0 9.9,0.8 14.1,2.5 4.2,1.7 7.8,4 10.8,7 3,3 5.3,6.7 6.9,11 1.6,4.3 2.4,9.1 2.4,14.4 0,5.3 -0.8,10.1 -2.4,14.3 -1.6,4.3 -3.9,7.9 -6.9,10.9 -3,3 -6.6,5.4 -10.8,7 -4.2,1.6 -8.9,2.4 -14.1,2.4 -5.2,0 -9.9,-0.8 -14.1,-2.4 -4.2,-1.6 -7.8,-3.9 -10.8,-7 -3,-3 -5.3,-6.7 -6.9,-10.9 -1.6,-4.3 -2.4,-9 -2.4,-14.3 0,-5.3 0.8,-10.1 2.4,-14.4 z m 16.6,22.2 c 0.5,2.5 1.4,4.8 2.6,6.8 1.2,2 2.9,3.6 4.9,4.8 2,1.2 4.6,1.8 7.7,1.8 3.1,0 5.7,-0.6 7.7,-1.8 2.1,-1.2 3.8,-2.8 5,-4.8 1.2,-2 2.1,-4.3 2.6,-6.8 0.5,-2.5 0.8,-5.1 0.8,-7.7 0,-2.6 -0.3,-5.2 -0.8,-7.8 -0.5,-2.6 -1.4,-4.8 -2.6,-6.8 -1.2,-2 -2.9,-3.6 -5,-4.8 -2.1,-1.2 -4.7,-1.9 -7.7,-1.9 -3.1,0 -5.6,0.6 -7.7,1.9 -2,1.2 -3.7,2.8 -4.9,4.8 -1.2,2 -2.1,4.2 -2.6,6.8 -0.5,2.6 -0.8,5.2 -0.8,7.8 0,2.6 0.2,5.1 0.8,7.7 z"
   id="path3836"
   inkscape:connector-curvature="0"
   style="fill:#e98c3b" />
	<path
   class="st0"
   d="m 708.5,179.5 -11.7,-45 h -0.3 l -11.1,45 h -18 l -19,-66.6 16,-0.4 12,45 12,-45 h 17 l 11.6,44 h 0.3 l 11.2,-44 h 18 l -21,67 z"
   id="path3838"
   inkscape:connector-curvature="0"
   style="fill:#e98c3b" />
	<path
   class="st0"
   d="M 774.8,87.6 V 179 H 756.6 V 87.6 Z"
   id="path3840"
   inkscape:connector-curvature="0"
   style="fill:#e98c3b" />
	<path
   class="st0"
   d="m 810.9,163.2 c 2.7,2.6 6.7,4 11.8,4 3.7,0 6.8,-0.9 9.5,-2.8 2.6,-1.8 4.3,-3.8 4.9,-5.8 l 14.5,2.9 c -2.6,7.9 -5,10.7 -10.3,14.1 -5.3,3.4 -11.7,5.1 -19.2,5.1 -5.2,0 -9.9,-0.8 -14.1,-2.5 -4.2,-1.7 -7.7,-4 -10.6,-7.1 -2.9,-3.1 -5.1,-6.7 -6.7,-11 -1.6,-4.3 -2.4,-9 -2.4,-14.1 0,-4.9 0.8,-9.6 2.4,-13.8 1.6,-4.3 3.9,-8 6.9,-11.1 3,-3.1 6.5,-5.6 10.7,-7.4 4.1,-1.8 8.7,-2.7 13.8,-2.7 5.6,0 10.5,1.1 14.7,3.3 4.2,2.2 7.6,5.1 10.3,8.8 2.7,3.7 4.6,7.9 5.8,12.5 1.2,4.7 1.6,9.6 1.3,14.7 h -47.7 c 0.1,6 1.6,10.2 4.4,12.9 z m 20.5,-34.9 c -2.2,-2.4 -5.5,-3.6 -9.9,-3.6 -2.9,0 -5.3,0.5 -7.2,1.5 -1.9,1 -3.5,2.2 -4.6,3.6 -1.2,1.5 -2,3 -2.4,4.6 -0.5,1.6 -0.7,3.1 -0.8,4.4 H 836 c -0.9,-4.6 -2.4,-8.1 -4.6,-10.5 z"
   id="path3842"
   inkscape:connector-curvature="0"
   style="fill:#e98c3b" />
	<path
   class="st0"
   d="m 913.1,170.6 c -2.1,3.6 -4.9,6.2 -8.4,7.7 -3.5,1.5 -7.4,2.4 -11.7,2.4 -5,0 -9.3,-1 -13.1,-2.9 -3.8,-1.9 -6.8,-4.5 -9.3,-7.8 -2.4,-3.3 -4.3,-7.1 -5.5,-11.3 -1.2,-4.3 -1.9,-8.7 -1.9,-13.3 0,-4.4 0.6,-8.7 1.9,-12.9 1.2,-4.1 3.1,-7.8 5.5,-10.9 2.4,-3.2 5.5,-5.7 9.2,-7.6 3.7,-1.9 7.9,-2.9 12.8,-2.9 3.9,0 7.7,0.8 11.2,2.5 3.5,1.7 6.3,4.1 8.4,7.4 h 0.3 V 87.6 h 18.2 V 179 h -17.3 v -8.4 z m -0.7,-32.7 c -0.5,-2.5 -1.4,-4.7 -2.6,-6.7 -1.2,-1.9 -2.8,-3.5 -4.8,-4.7 -2,-1.2 -4.4,-1.8 -7.4,-1.8 -3,0 -5.5,0.6 -7.6,1.8 -2,1.2 -3.7,2.8 -4.9,4.7 -1.2,2 -2.1,4.2 -2.7,6.7 -0.6,2.5 -0.8,5.1 -0.8,7.9 0,2.6 0.3,5.1 0.9,7.7 0.6,2.6 1.6,4.8 2.9,6.8 1.3,2 3,3.6 5,4.9 2,1.2 4.4,1.9 7.2,1.9 3,0 5.5,-0.6 7.5,-1.8 2,-1.2 3.6,-2.8 4.8,-4.8 1.2,-2 2,-4.3 2.6,-6.8 0.5,-2.6 0.8,-5.2 0.8,-7.9 -0.2,-2.8 -0.4,-5.4 -0.9,-7.9 z"
   id="path3844"
   inkscape:connector-curvature="0"
   style="fill:#e98c3b" />
	<path
   class="st0"
   d="m 1007.2,185.9 c -0.7,3.4 -2.3,6.6 -4.7,9.5 -2.4,2.9 -5.8,5.4 -10.4,7.5 -4.5,2 -10.6,3.1 -18.2,3.1 -3.2,0 -6.5,-0.4 -9.9,-1.2 -3.4,-0.8 -6.4,-2.1 -9.2,-3.8 -2.8,-1.7 -5.1,-3.9 -6.9,-6.6 -1.8,-2.7 -2.9,-5.9 -3.1,-9.7 l 18.7,2.8 c 1,2 3,4 4.3,4.4 2.7,0.7 5.3,2 8.6,2 5.1,0 8.9,-1.5 11.2,-4.6 2.3,-3.1 3.5,-9 3.4,-13.6 V 167 h -0.3 c -2,3.5 -4.8,6.1 -8.4,7.7 -3.6,1.7 -7.4,2.5 -11.5,2.5 -5,0 -9.2,-0.9 -12.8,-2.6 -3.6,-1.7 -6.5,-4.1 -8.8,-7.2 -2.3,-3 -4,-6.6 -5.1,-10.6 -1.1,-4.1 -1.6,-8.3 -1.6,-12.9 0,-4.3 0.6,-8.4 1.9,-12.4 1.2,-4 3,-7.5 5.4,-10.5 2.4,-3 5.4,-5.4 8.9,-7.2 3.5,-1.8 7.6,-2.7 12.2,-2.7 4.4,0 8.2,0.8 11.5,2.4 3.3,1.6 6,4.4 8.3,8.2 h 0.3 v -8.8 h 17.3 v 62 c 0,2.6 -0.4,7.6 -1.1,11 z m -24.9,-24 c 2,-1 3.6,-2.4 4.9,-4.1 1.3,-1.7 2.2,-3.6 2.9,-5.8 0.6,-2.2 1,-4.5 1,-6.8 0,-2.7 -0.3,-5.3 -0.8,-7.7 -0.5,-2.4 -1.4,-4.6 -2.6,-6.5 -1.2,-1.9 -2.8,-3.4 -4.7,-4.5 -2,-1.1 -4.4,-1.7 -7.4,-1.7 -2.6,0 -4.8,0.5 -6.6,1.5 -1.8,1 -3.4,2.4 -4.6,4.2 -1.2,1.8 -2.1,3.8 -2.7,6 -0.6,2.3 -0.8,4.6 -0.8,7.1 0,2.4 0.2,4.8 0.7,7.1 0.5,2.3 1.3,4.5 2.4,6.3 1.2,1.9 2.7,3.4 4.5,4.6 1.9,1.2 4.2,1.8 7,1.8 2.6,0 4.8,-0.5 6.8,-1.5 z"
   id="path3846"
   inkscape:connector-curvature="0"
   style="fill:#e98c3b" />
	<path
   class="st0"
   d="m 1044.6,163.2 c 2.7,2.6 6.7,4 11.8,4 3.7,0 6.8,-0.9 9.5,-2.8 2.6,-1.8 4.3,-3.8 4.9,-5.8 l 14.8,2.9 c -2.6,7.9 -5.3,10.7 -10.6,14.1 -5.3,3.4 -11.7,5.1 -19.2,5.1 -5.2,0 -9.9,-0.8 -14.1,-2.5 -4.2,-1.7 -7.7,-4 -10.6,-7.1 -2.9,-3.1 -5.1,-6.7 -6.7,-11 -1.6,-4.3 -2.4,-9 -2.4,-14.1 0,-4.9 0.8,-9.6 2.4,-13.8 1.6,-4.3 3.9,-8 6.9,-11.1 3,-3.1 6.5,-5.6 10.7,-7.4 4.1,-1.8 8.7,-2.7 13.8,-2.7 5.6,0 10.5,1.1 14.7,3.3 4.2,2.2 7.6,5.1 10.3,8.8 2.7,3.7 4.6,7.9 5.8,12.5 1.2,4.7 1.6,9.6 1.3,14.7 h -47.7 c 0.2,6 1.7,10.2 4.4,12.9 z m 20.5,-34.9 c -2.2,-2.4 -5.5,-3.6 -9.9,-3.6 -2.9,0 -5.3,0.5 -7.2,1.5 -1.9,1 -3.5,2.2 -4.6,3.6 -1.2,1.5 -2,3 -2.4,4.6 -0.5,1.6 -0.7,3.1 -0.8,4.4 h 29.6 c -1,-4.6 -2.5,-8.1 -4.7,-10.5 z"
   id="path3848"
   inkscape:connector-curvature="0"
   style="fill:#e98c3b" />
	<path
   class="st0"
   d="m 1160.4,112 c -1.2,-1.9 -2.7,-3.6 -4.5,-5.1 -1.8,-1.5 -3.8,-2.6 -6.1,-3.4 -2.3,-0.8 -4.6,-1.2 -7.1,-1.2 -4.5,0 -8.4,0.9 -11.5,2.6 -3.2,1.8 -5.7,4.1 -7.7,7 -2,2.9 -3.4,6.3 -4.3,10 -0.9,3.8 -1.3,7.6 -1.3,11.6 0,3.8 0.4,7.6 1.3,11.2 0.9,3.6 2.3,6.9 4.3,9.8 2,2.9 4.5,5.2 7.7,7 3.2,1.8 7,2.6 11.5,2.6 6.1,0 10.9,-1.9 14.4,-5.6 3.5,-3.8 5.6,-8.7 6.3,-14.8 l 19,3.7 c -0.5,5.7 -1.4,7.2 -3.5,11.8 -2.1,4.6 -4.9,8.5 -8.4,11.8 -3.5,3.2 -7.6,5.7 -12.3,7.4 -4.7,1.7 -9.9,2.6 -15.5,2.6 -7,0 -13.3,-1.2 -18.9,-3.6 -5.6,-2.4 -10.3,-5.8 -14.1,-10 -3.8,-4.3 -6.8,-9.3 -8.8,-15 -2,-5.8 -3.1,-12 -3.1,-18.6 0,-6.8 1,-13.2 3.1,-19 2,-5.8 5,-10.9 8.8,-15.3 3.8,-4.4 8.6,-7.8 14.1,-10.2 5.6,-2.5 11.9,-3.7 18.9,-3.7 5,0 9.8,0.7 14.3,2.2 4.5,1.5 8.5,3.6 12,6.3 3.5,2.8 6.5,6.2 8.8,10.3 2.3,4.1 3.7,7.2 3.7,9.2 l -18.8,4.9 c -0.3,-2.4 -1.1,-4.6 -2.3,-6.5 z"
   id="path3850"
   inkscape:connector-curvature="0"
   style="fill:#e98c3b" />
	<path
   class="st0"
   d="m 1196.5,102.6 v -15 h 18.2 v 15 z m 18.2,10.3 V 179 h -18.2 v -66.2 z"
   id="path3852"
   inkscape:connector-curvature="0"
   style="fill:#e98c3b" />
	<path
   class="st0"
   d="M 1263.5,112.9 V 125 h -11.1 v 32.8 c 0,3.1 0.5,5.1 1.5,6.1 1,1 3.1,1.5 6.1,1.5 1,0 2,0 2.9,-0.1 0.9,-0.1 1.8,-0.2 2.7,-0.4 V 179 c -1.5,0.3 -3.2,0.4 -5.1,0.5 -1.9,0.1 -3.7,0.1 -5.5,0.1 -2.8,0 -5.5,-0.2 -8,-0.6 -2.5,-0.4 -4.7,-1.1 -6.7,-2.2 -1.9,-1.1 -3.4,-2.7 -4.5,-4.7 -1.1,-2 -1.7,-4.7 -1.7,-8.1 v -39 h -11 v -12.2 h 11 V 99.5 l 18.2,-14 v 27.4 z"
   id="path3854"
   inkscape:connector-curvature="0"
   style="fill:#e98c3b" />
	<path
   class="st0"
   d="m 1303.1,202.7 c -3.5,2.3 -8.4,3.5 -14.6,3.5 -1.9,0 -3.7,-0.1 -5.6,-0.2 -1.8,-0.1 -5.6,-0.3 -7.4,-0.5 l 3,-14 c 1.7,0.2 13,4 16,-3 3,-7 1.3,-12.3 0.8,-13.6 l -23.2,-62.1 h 19.3 l 15,45.3 h 0.3 l 14.5,-45.3 h 18.8 l -28.6,78.4 c -2.1,5.4 -4.8,9.2 -8.3,11.5 z"
   id="path3856"
   inkscape:connector-curvature="0"
   style="fill:#e98c3b" />
</g>
<g
   id="g3894"
   transform="translate(-38.183766)">
	<path
   class="st1"
   d="m 417.9,215.7 v 50.1 h 29.9 v 6.3 h -37.4 v -56.4 z"
   id="path3860"
   inkscape:connector-curvature="0"
   style="fill:#333333" />
	<path
   class="st1"
   d="m 483.7,269.5 c -3.1,2.3 -6.9,3.5 -11.5,3.5 -3.3,0 -6.1,-0.5 -8.5,-1.6 -2.4,-1.1 -4.4,-2.5 -6,-4.4 -1.6,-1.9 -2.9,-4.2 -3.7,-6.8 -0.8,-2.6 -1.3,-5.5 -1.4,-8.6 0,-3.1 0.5,-6 1.4,-8.5 0.9,-2.6 2.3,-4.8 4,-6.7 1.7,-1.9 3.7,-3.4 6.1,-4.4 2.3,-1.1 4.9,-1.6 7.7,-1.6 3.6,0 6.6,0.8 9,2.3 2.4,1.5 4.3,3.4 5.8,5.7 1.4,2.3 2.4,4.8 3,7.6 0.6,2.7 0.8,5.3 0.7,7.8 h -30.6 c -0.1,1.8 0.2,3.5 0.6,5.1 0.5,1.6 1.2,3 2.3,4.3 1.1,1.2 2.4,2.2 4,3 1.6,0.7 3.6,1.1 5.8,1.1 2.8,0 5.2,-0.7 7,-2 1.8,-1.3 3,-3.3 3.6,-6 h 6.6 c -0.9,4.5 -2.8,7.9 -5.9,10.2 z m -1.6,-26.2 c -0.6,-1.4 -1.4,-2.6 -2.4,-3.7 -1,-1 -2.2,-1.8 -3.6,-2.4 -1.4,-0.6 -2.9,-0.9 -4.6,-0.9 -1.7,0 -3.3,0.3 -4.7,0.9 -1.4,0.6 -2.6,1.4 -3.6,2.5 -1,1.1 -1.8,2.3 -2.4,3.7 -0.6,1.4 -0.9,2.9 -1,4.5 h 23.5 c -0.2,-1.7 -0.6,-3.2 -1.2,-4.6 z"
   id="path3862"
   inkscape:connector-curvature="0"
   style="fill:#333333" />
	<path
   class="st1"
   d="m 535,272 c -1.2,0.7 -2.8,1 -4.8,1 -1.7,0 -3.1,-0.5 -4.1,-1.5 -1,-1 -1.5,-2.6 -1.5,-4.8 -1.8,2.2 -4,3.8 -6.4,4.8 -2.4,1 -5.1,1.5 -7.9,1.5 -1.8,0 -3.6,-0.2 -5.3,-0.6 -1.7,-0.4 -3.1,-1.1 -4.3,-2 -1.2,-0.9 -2.2,-2.1 -2.9,-3.5 -0.7,-1.4 -1.1,-3.2 -1.1,-5.3 0,-2.3 0.4,-4.2 1.2,-5.7 0.8,-1.5 1.8,-2.7 3.1,-3.6 1.3,-0.9 2.8,-1.6 4.4,-2.1 1.7,-0.5 3.4,-0.9 5.1,-1.2 1.8,-0.4 3.6,-0.6 5.3,-0.8 1.7,-0.2 3.1,-0.4 4.4,-0.8 1.3,-0.3 2.3,-0.8 3,-1.5 0.7,-0.7 1.1,-1.6 1.1,-2.9 0,-1.5 -0.3,-2.7 -0.8,-3.6 -0.6,-0.9 -1.3,-1.6 -2.1,-2.1 -0.9,-0.5 -1.8,-0.8 -2.9,-0.9 -1.1,-0.2 -2.1,-0.2 -3.2,-0.2 -2.8,0 -5.2,0.5 -7.1,1.6 -1.9,1.1 -2.9,3.1 -3.1,6.1 h -6.7 c 0.1,-2.5 0.6,-4.7 1.6,-6.4 0.9,-1.7 2.2,-3.1 3.8,-4.2 1.6,-1.1 3.4,-1.9 5.4,-2.3 2,-0.5 4.2,-0.7 6.5,-0.7 1.8,0 3.7,0.1 5.5,0.4 1.8,0.3 3.5,0.8 4.9,1.6 1.5,0.8 2.7,2 3.6,3.4 0.9,1.5 1.3,3.4 1.3,5.8 v 21 c 0,1.6 0.1,2.7 0.3,3.5 0.2,0.7 0.8,1.1 1.9,1.1 0.6,0 1.3,-0.1 2.1,-0.3 v 5.2 z m -10.9,-20.9 c -0.8,0.6 -1.9,1.1 -3.3,1.4 -1.4,0.3 -2.8,0.5 -4.3,0.7 -1.5,0.2 -3,0.4 -4.5,0.6 -1.5,0.2 -2.9,0.6 -4.1,1.1 -1.2,0.5 -2.2,1.3 -3,2.2 -0.8,1 -1.1,2.3 -1.1,4 0,1.1 0.2,2 0.7,2.8 0.4,0.8 1,1.4 1.7,1.8 0.7,0.5 1.5,0.8 2.5,1 0.9,0.2 1.9,0.3 3,0.3 2.2,0 4.1,-0.3 5.7,-0.9 1.6,-0.6 2.9,-1.4 3.9,-2.3 1,-0.9 1.7,-1.9 2.2,-3 0.5,-1.1 0.7,-2.1 0.7,-3 v -6.7 z"
   id="path3864"
   inkscape:connector-curvature="0"
   style="fill:#333333" />
	<path
   class="st1"
   d="m 548.9,231.3 v 8.6 h 0.2 c 1.6,-3.3 3.6,-5.8 6,-7.3 2.4,-1.6 5.4,-2.3 9,-2.2 v 7.1 c -2.7,0 -5,0.4 -6.9,1.1 -1.9,0.7 -3.4,1.8 -4.6,3.2 -1.2,1.4 -2,3.1 -2.5,5.2 -0.5,2 -0.8,4.4 -0.8,7 v 18.2 h -6.7 v -40.8 h 6.3 z"
   id="path3866"
   inkscape:connector-curvature="0"
   style="fill:#333333" />
	<path
   class="st1"
   d="m 578.4,231.3 v 6.5 h 0.2 c 2.8,-4.9 7.2,-7.4 13.3,-7.4 2.7,0 4.9,0.4 6.7,1.1 1.8,0.7 3.2,1.8 4.3,3.1 1.1,1.3 1.9,2.9 2.3,4.7 0.4,1.8 0.7,3.8 0.7,6 v 26.9 h -6.7 v -27.6 c 0,-2.5 -0.7,-4.5 -2.2,-6 -1.5,-1.5 -3.5,-2.2 -6.1,-2.2 -2.1,0 -3.8,0.3 -5.3,0.9 -1.5,0.6 -2.8,1.5 -3.8,2.7 -1,1.2 -1.8,2.5 -2.3,4.1 -0.5,1.6 -0.8,3.3 -0.8,5.1 v 23.1 H 572 v -40.8 h 6.4 z"
   id="path3868"
   inkscape:connector-curvature="0"
   style="fill:#333333" />
	<path
   class="st1"
   d="m 618,224 v -8.2 h 6.7 v 8.2 z m 6.7,7.3 v 40.8 H 618 v -40.8 z"
   id="path3870"
   inkscape:connector-curvature="0"
   style="fill:#333333" />
	<path
   class="st1"
   d="m 643.1,231.3 v 6.5 h 0.2 c 2.8,-4.9 7.2,-7.4 13.3,-7.4 2.7,0 4.9,0.4 6.7,1.1 1.8,0.7 3.2,1.8 4.3,3.1 1.1,1.3 1.9,2.9 2.3,4.7 0.4,1.8 0.7,3.8 0.7,6 v 26.9 h -6.7 v -27.6 c 0,-2.5 -0.7,-4.5 -2.2,-6 -1.5,-1.5 -3.5,-2.2 -6.1,-2.2 -2.1,0 -3.8,0.3 -5.3,0.9 -1.5,0.6 -2.8,1.5 -3.8,2.7 -1,1.2 -1.8,2.5 -2.3,4.1 -0.5,1.6 -0.8,3.3 -0.8,5.1 v 23.1 h -6.7 v -40.8 h 6.4 z"
   id="path3872"
   inkscape:connector-curvature="0"
   style="fill:#333333" />
	<path
   class="st1"
   d="m 712.9,283.7 c -3.1,3.3 -7.8,5 -14.4,5 -1.9,0 -3.8,-0.2 -5.8,-0.6 -2,-0.4 -3.8,-1.1 -5.4,-2.1 -1.6,-0.9 -2.9,-2.2 -4,-3.7 -1.1,-1.5 -1.6,-3.4 -1.7,-5.6 h 6.7 c 0.1,1.2 0.4,2.2 1.1,3.1 0.7,0.8 1.6,1.5 2.6,2.1 1,0.5 2.1,0.9 3.4,1.1 1.2,0.2 2.4,0.4 3.5,0.4 2.2,0 4.1,-0.4 5.6,-1.1 1.5,-0.8 2.8,-1.8 3.8,-3.2 1,-1.3 1.7,-3 2.2,-4.9 0.4,-1.9 0.7,-4 0.7,-6.2 v -2.7 H 711 c -1.2,2.5 -2.9,4.4 -5.3,5.6 -2.3,1.2 -4.8,1.8 -7.5,1.8 -3.1,0 -5.7,-0.6 -8,-1.7 -2.3,-1.1 -4.2,-2.6 -5.7,-4.5 -1.5,-1.9 -2.7,-4.1 -3.4,-6.6 -0.8,-2.5 -1.1,-5.1 -1.1,-7.9 0,-2.4 0.3,-4.9 0.9,-7.5 0.6,-2.6 1.7,-4.9 3.2,-7 1.5,-2.1 3.4,-3.8 5.8,-5.1 2.4,-1.3 5.4,-2 8.9,-2 2.6,0 5,0.6 7.1,1.7 2.2,1.1 3.8,2.8 5.1,5.1 h 0.1 v -5.8 h 6.3 v 37.4 c 0.1,6.6 -1.5,11.6 -4.5,14.9 z m -8.6,-18.4 c 1.6,-0.9 2.8,-2.1 3.8,-3.6 0.9,-1.5 1.6,-3.2 2.1,-5.1 0.4,-1.9 0.7,-3.8 0.7,-5.7 0,-1.8 -0.2,-3.6 -0.6,-5.3 -0.4,-1.7 -1.1,-3.3 -2,-4.7 -0.9,-1.4 -2.1,-2.5 -3.6,-3.4 -1.5,-0.8 -3.3,-1.3 -5.4,-1.3 -2.2,0 -4,0.4 -5.5,1.2 -1.5,0.8 -2.8,1.9 -3.8,3.3 -1,1.4 -1.7,2.9 -2.1,4.7 -0.4,1.8 -0.7,3.7 -0.7,5.6 0,1.8 0.2,3.7 0.6,5.5 0.4,1.8 1,3.5 1.9,5 0.9,1.5 2.1,2.7 3.6,3.6 1.5,0.9 3.3,1.4 5.5,1.4 2.2,0 4,-0.3 5.5,-1.2 z"
   id="path3874"
   inkscape:connector-curvature="0"
   style="fill:#333333" />
	<path
   class="st1"
   d="m 782,223.4 c -2.5,-1.8 -5.7,-2.7 -9.6,-2.7 -1.6,0 -3.1,0.2 -4.7,0.5 -1.6,0.3 -2.9,0.8 -4.1,1.6 -1.2,0.7 -2.1,1.7 -2.8,3 -0.7,1.2 -1.1,2.8 -1.1,4.6 0,1.7 0.5,3.1 1.5,4.2 1,1.1 2.4,2 4.1,2.6 1.7,0.7 3.6,1.3 5.8,1.7 2.2,0.4 4.4,0.9 6.6,1.5 2.2,0.5 4.4,1.1 6.6,1.9 2.2,0.7 4.1,1.7 5.8,2.9 1.7,1.2 3.1,2.7 4.1,4.6 1,1.8 1.5,4.2 1.5,7 0,3 -0.7,5.6 -2,7.7 -1.3,2.1 -3.1,3.9 -5.2,5.2 -2.1,1.3 -4.5,2.3 -7.1,2.9 -2.6,0.6 -5.2,0.9 -7.8,0.9 -3.2,0 -6.1,-0.4 -9,-1.2 -2.8,-0.8 -5.3,-2 -7.4,-3.6 -2.1,-1.6 -3.8,-3.7 -5.1,-6.2 -1.2,-2.5 -1.9,-5.5 -1.9,-8.9 h 7.1 c 0,2.4 0.5,4.4 1.4,6.1 0.9,1.7 2.1,3.1 3.6,4.2 1.5,1.1 3.3,1.9 5.3,2.4 2,0.5 4.1,0.8 6.2,0.8 1.7,0 3.4,-0.2 5.1,-0.5 1.7,-0.3 3.3,-0.9 4.6,-1.6 1.4,-0.8 2.5,-1.8 3.3,-3.1 0.8,-1.3 1.3,-3 1.3,-5.1 0,-1.9 -0.5,-3.5 -1.5,-4.7 -1,-1.2 -2.4,-2.2 -4.1,-3 -1.7,-0.8 -3.6,-1.4 -5.8,-1.9 -2.2,-0.5 -4.4,-1 -6.6,-1.5 -2.2,-0.5 -4.4,-1.1 -6.6,-1.7 -2.2,-0.7 -4.1,-1.5 -5.8,-2.6 -1.7,-1.1 -3.1,-2.5 -4.1,-4.2 -1,-1.7 -1.5,-3.9 -1.5,-6.4 0,-2.8 0.6,-5.3 1.7,-7.4 1.2,-2.1 2.7,-3.8 4.6,-5.1 1.9,-1.3 4.1,-2.3 6.6,-3 2.4,-0.7 5,-1 7.5,-1 2.9,0 5.6,0.3 8.1,1 2.5,0.7 4.6,1.8 6.5,3.2 1.9,1.5 3.3,3.3 4.4,5.6 1.1,2.2 1.7,4.9 1.8,8 h -7.1 c -0.2,-3.9 -1.7,-6.8 -4.2,-8.7 z"
   id="path3876"
   inkscape:connector-curvature="0"
   style="fill:#333333" />
	<path
   class="st1"
   d="m 804.5,243.4 c 0.8,-2.6 2.1,-4.9 3.8,-6.8 1.7,-1.9 3.8,-3.4 6.2,-4.5 2.4,-1.1 5.3,-1.7 8.5,-1.7 3.3,0 6.1,0.6 8.6,1.7 2.4,1.1 4.5,2.6 6.2,4.5 1.7,1.9 2.9,4.2 3.8,6.8 0.8,2.6 1.3,5.4 1.3,8.4 0,3 -0.4,5.8 -1.3,8.4 -0.8,2.6 -2.1,4.8 -3.8,6.8 -1.7,1.9 -3.8,3.4 -6.2,4.5 -2.4,1.1 -5.3,1.6 -8.6,1.6 -3.2,0 -6.1,-0.5 -8.5,-1.6 -2.4,-1.1 -4.6,-2.6 -6.2,-4.5 -1.7,-1.9 -3,-4.2 -3.8,-6.8 -0.8,-2.6 -1.3,-5.4 -1.3,-8.4 0,-3 0.5,-5.8 1.3,-8.4 z m 6.9,15 c 0.7,1.9 1.6,3.5 2.7,4.8 1.2,1.3 2.5,2.3 4.1,3 1.6,0.7 3.2,1 4.9,1 1.7,0 3.4,-0.3 4.9,-1 1.6,-0.7 2.9,-1.7 4.1,-3 1.2,-1.3 2.1,-2.9 2.7,-4.8 0.7,-1.9 1,-4.1 1,-6.6 0,-2.5 -0.3,-4.7 -1,-6.6 -0.7,-1.9 -1.6,-3.5 -2.7,-4.9 -1.2,-1.3 -2.5,-2.3 -4.1,-3 -1.6,-0.7 -3.2,-1 -4.9,-1 -1.7,0 -3.4,0.3 -4.9,1 -1.6,0.7 -2.9,1.7 -4.1,3 -1.2,1.3 -2.1,2.9 -2.7,4.9 -0.7,1.9 -1,4.1 -1,6.6 0,2.4 0.3,4.6 1,6.6 z"
   id="path3878"
   inkscape:connector-curvature="0"
   style="fill:#333333" />
	<path
   class="st1"
   d="m 859.5,215.7 v 56.4 h -6.7 v -56.4 z"
   id="path3880"
   inkscape:connector-curvature="0"
   style="fill:#333333" />
	<path
   class="st1"
   d="m 899,272.1 v -6.5 h -0.2 c -1.4,2.5 -3.2,4.4 -5.5,5.6 -2.2,1.2 -4.8,1.8 -7.8,1.8 -2.7,0 -4.9,-0.4 -6.7,-1.1 -1.8,-0.7 -3.2,-1.7 -4.3,-3 -1.1,-1.3 -1.9,-2.9 -2.3,-4.7 -0.4,-1.8 -0.7,-3.8 -0.7,-6 v -26.9 h 6.7 V 259 c 0,2.5 0.7,4.5 2.2,6 1.5,1.5 3.5,2.2 6.1,2.2 2.1,0 3.8,-0.3 5.3,-0.9 1.5,-0.6 2.8,-1.5 3.8,-2.7 1,-1.2 1.8,-2.5 2.3,-4.1 0.5,-1.6 0.8,-3.3 0.8,-5.1 v -23.1 h 6.7 v 40.8 z"
   id="path3882"
   inkscape:connector-curvature="0"
   style="fill:#333333" />
	<path
   class="st1"
   d="m 934.5,231.3 v 5.9 h -8.1 v 25.4 c 0,0.8 0.1,1.4 0.2,1.9 0.1,0.5 0.4,0.8 0.8,1.1 0.4,0.3 0.9,0.4 1.5,0.5 0.7,0.1 1.5,0.1 2.6,0.1 h 3.1 v 5.9 h -5.1 c -1.7,0 -3.2,-0.1 -4.5,-0.4 -1.3,-0.3 -2.2,-0.7 -3,-1.3 -0.8,-0.6 -1.3,-1.5 -1.7,-2.7 -0.4,-1.2 -0.6,-2.7 -0.6,-4.6 v -26 h -7 v -5.9 h 7 V 219 h 6.7 v 12.2 z"
   id="path3884"
   inkscape:connector-curvature="0"
   style="fill:#333333" />
	<path
   class="st1"
   d="m 943.9,224 v -8.2 h 6.7 v 8.2 z m 6.7,7.3 v 40.8 h -6.7 v -40.8 z"
   id="path3886"
   inkscape:connector-curvature="0"
   style="fill:#333333" />
	<path
   class="st1"
   d="m 961.7,243.4 c 0.8,-2.6 2.1,-4.9 3.8,-6.8 1.7,-1.9 3.8,-3.4 6.2,-4.5 2.4,-1.1 5.3,-1.7 8.5,-1.7 3.3,0 6.1,0.6 8.6,1.7 2.4,1.1 4.5,2.6 6.2,4.5 1.7,1.9 2.9,4.2 3.8,6.8 0.8,2.6 1.3,5.4 1.3,8.4 0,3 -0.4,5.8 -1.3,8.4 -0.8,2.6 -2.1,4.8 -3.8,6.8 -1.7,1.9 -3.8,3.4 -6.2,4.5 -2.4,1.1 -5.3,1.6 -8.6,1.6 -3.2,0 -6.1,-0.5 -8.5,-1.6 -2.4,-1.1 -4.6,-2.6 -6.2,-4.5 -1.7,-1.9 -3,-4.2 -3.8,-6.8 -0.8,-2.6 -1.3,-5.4 -1.3,-8.4 0,-3 0.4,-5.8 1.3,-8.4 z m 6.8,15 c 0.7,1.9 1.6,3.5 2.7,4.8 1.2,1.3 2.5,2.3 4.1,3 1.6,0.7 3.2,1 4.9,1 1.7,0 3.4,-0.3 4.9,-1 1.6,-0.7 2.9,-1.7 4.1,-3 1.2,-1.3 2.1,-2.9 2.7,-4.8 0.7,-1.9 1,-4.1 1,-6.6 0,-2.5 -0.3,-4.7 -1,-6.6 -0.7,-1.9 -1.6,-3.5 -2.7,-4.9 -1.2,-1.3 -2.5,-2.3 -4.1,-3 -1.6,-0.7 -3.2,-1 -4.9,-1 -1.7,0 -3.4,0.3 -4.9,1 -1.6,0.7 -2.9,1.7 -4.1,3 -1.2,1.3 -2.1,2.9 -2.7,4.9 -0.7,1.9 -1,4.1 -1,6.6 0,2.4 0.3,4.6 1,6.6 z"
   id="path3888"
   inkscape:connector-curvature="0"
   style="fill:#333333" />
	<path
   class="st1"
   d="m 1015.8,231.3 v 6.5 h 0.2 c 2.8,-4.9 7.2,-7.4 13.3,-7.4 2.7,0 4.9,0.4 6.7,1.1 1.8,0.7 3.2,1.8 4.3,3.1 1.1,1.3 1.9,2.9 2.3,4.7 0.4,1.8 0.7,3.8 0.7,6 v 26.9 h -6.7 v -27.6 c 0,-2.5 -0.7,-4.5 -2.2,-6 -1.5,-1.5 -3.5,-2.2 -6.1,-2.2 -2.1,0 -3.8,0.3 -5.3,0.9 -1.5,0.6 -2.8,1.5 -3.8,2.7 -1,1.2 -1.8,2.5 -2.3,4.1 -0.5,1.6 -0.8,3.3 -0.8,5.1 v 23.1 h -6.7 v -40.8 h 6.4 z"
   id="path3890"
   inkscape:connector-curvature="0"
   style="fill:#333333" />
	<path
   class="st1"
   d="m 1060.2,263 c 0.6,1 1.5,1.8 2.5,2.4 1,0.6 2.2,1 3.5,1.3 1.3,0.3 2.6,0.4 4,0.4 1.1,0 2.2,-0.1 3.3,-0.2 1.2,-0.2 2.2,-0.4 3.2,-0.9 1,-0.4 1.8,-1 2.4,-1.9 0.6,-0.8 0.9,-1.9 0.9,-3.1 0,-1.7 -0.7,-3.1 -2,-3.9 -1.3,-0.9 -3,-1.6 -4.9,-2.2 -2,-0.6 -4.1,-1.1 -6.4,-1.5 -2.3,-0.4 -4.5,-1.1 -6.4,-1.9 -2,-0.8 -3.6,-2 -4.9,-3.4 -1.3,-1.5 -2,-3.5 -2,-6.2 0,-2.1 0.5,-3.8 1.4,-5.3 0.9,-1.5 2.1,-2.7 3.6,-3.6 1.4,-0.9 3.1,-1.6 4.9,-2.1 1.8,-0.4 3.6,-0.7 5.4,-0.7 2.3,0 4.4,0.2 6.4,0.6 1.9,0.4 3.7,1.1 5.2,2.1 1.5,1 2.7,2.3 3.6,4 0.9,1.7 1.4,3.7 1.6,6.2 h -6.7 c -0.1,-1.3 -0.4,-2.4 -1,-3.3 -0.6,-0.9 -1.3,-1.6 -2.2,-2.1 -0.9,-0.5 -1.9,-0.9 -3,-1.1 -1.1,-0.2 -2.2,-0.4 -3.3,-0.4 -1,0 -2,0.1 -3,0.2 -1,0.2 -2,0.4 -2.8,0.8 -0.8,0.4 -1.5,0.9 -2.1,1.6 -0.5,0.7 -0.8,1.5 -0.8,2.6 0,1.2 0.4,2.1 1.2,2.9 0.8,0.8 1.9,1.4 3.1,1.9 1.3,0.5 2.7,0.9 4.3,1.3 1.6,0.3 3.2,0.7 4.7,1.1 1.7,0.4 3.3,0.8 4.9,1.3 1.6,0.5 3,1.2 4.3,2.1 1.2,0.9 2.2,2 3,3.3 0.8,1.3 1.1,3 1.1,4.9 0,2.5 -0.5,4.5 -1.5,6.2 -1,1.6 -2.4,3 -4,4 -1.7,1 -3.5,1.7 -5.6,2.1 -2.1,0.4 -4.1,0.6 -6.2,0.6 -2.3,0 -4.4,-0.2 -6.5,-0.7 -2.1,-0.5 -3.9,-1.3 -5.5,-2.3 -1.6,-1.1 -2.8,-2.5 -3.8,-4.3 -0.9,-1.8 -1.5,-3.9 -1.6,-6.4 h 6.7 c 0,1.3 0.3,2.6 1,3.6 z"
   id="path3892"
   inkscape:connector-curvature="0"
   style="fill:#333333" />
</g>
<path
   class="st2"
   d="m 336.64466,64 h 2 v 229 h -2 z"
   id="path3896"
   inkscape:connector-curvature="0"
   style="fill:#d6d8d8" />
</svg>