<?xml version="1.0" encoding="UTF-8" standalone="no"?><svg width="85" height="64" viewBox="0 0 85 64" xmlns="http://www.w3.org/2000/svg" xmlns:xlink="http://www.w3.org/1999/xlink"><svg width="38" height="38" viewBox="0 0 38 38" id="arrow-right" xmlns="http://www.w3.org/2000/svg"><g fill="#fff"><path d="M16.621 8.444a1.172 1.172 0 00-1.609 1.703l9.643 9.107-9.643 9.107a1.172 1.172 0 001.609 1.704l10.545-9.959a1.172 1.172 0 000-1.704z"/><path d="M18.746 38A18.62 18.62 0 015.49 32.51 18.621 18.621 0 010 19.253C0 14.247 1.95 9.54 5.491 6A18.619 18.619 0 0118.746.508 18.62 18.62 0 0132 6a18.621 18.621 0 015.492 13.255c0 5.007-1.951 9.715-5.492 13.255A18.619 18.619 0 0118.746 38zM30.343 7.656a16.291 16.291 0 00-11.597-4.804c-4.381 0-8.5 1.706-11.598 4.804a16.293 16.293 0 00-4.805 11.598c0 4.381 1.707 8.5 4.806 11.598a16.291 16.291 0 0011.597 4.805c4.381 0 8.5-1.707 11.598-4.805a16.293 16.293 0 004.804-11.598c0-4.381-1.706-8.5-4.805-11.598z"/></g></svg><svg width="26" height="26" viewBox="0 0 26 26" id="checked" x="38" xmlns="http://www.w3.org/2000/svg"><path d="M13.06-.119C5.846-.119 0 5.73 0 12.941 0 20.153 5.847 26 13.06 26c7.211 0 13.059-5.847 13.059-13.06 0-7.211-5.848-13.059-13.06-13.059zm-2.025 19.086l-6.009-6.01 2.308-2.308 3.7 3.701 7.85-7.85 2.308 2.309z" fill="#508b32"/></svg><svg width="24" height="24" fill="none" viewBox="0 0 24 24" id="logout" x="22.1" y="38" xmlns="http://www.w3.org/2000/svg"><path stroke="currentColor" stroke-linecap="round" stroke-linejoin="round" stroke-width="2" d="M15 3H7a2 2 0 00-2 2v14a2 2 0 002 2h8m4-9l-4-4m4 4l-4 4m4-4H9"/></svg><svg version="1.1" id="password" y="38" xml:space="preserve" width="22.1" height="25.4" viewBox="0 0 22.1 25.4" xmlns="http://www.w3.org/2000/svg"><style type="text/css" id="dstyle4044">.dst0{fill:gray}</style><path class="dst0" d="M17.904 10.945v-5c-.235-2.058-2-5.999-7.058-5.999-5.059 0-6.823 4.058-7.058 6.235v4.764H.258v14.469h21.704v-14.47zM6.082 6.357C6.14 5.71 6.846 2.3 10.787 2.3c4 0 4.646 3.235 4.705 3.823v4.823h-9.41zm6.175 12.94l.824 1.823H9.316l.589-1.882c-.706-.412-1.236-1.235-1.236-2.117 0-1.353 1.118-2.412 2.412-2.412 1.294 0 2.412 1.118 2.412 2.412.058.94-.471 1.764-1.236 2.176z" id="dpath4046" fill="gray" stroke-width=".588"/></svg><svg version="1.1" id="user" x="64" xml:space="preserve" width="21" height="21" viewBox="0 0 21 21" xmlns="http://www.w3.org/2000/svg"><style type="text/css" id="estyle4121">.est0{fill:gray}</style><path class="est0" d="M.34 21.029s.294-6.952 5.516-9.954c0 0 1.958 2.709 4.961 2.709s5.157-2.71 5.157-2.71 4.993 3.2 4.993 9.955z" id="epath4123" fill="gray" stroke-width=".326"/><ellipse class="est0" cx="10.686" cy="5.951" rx="5.255" ry="5.842" id="eellipse4125" fill="gray" stroke-width=".326"/></svg></svg>