<?xml version="1.0" encoding="UTF-8" standalone="no"?>
<!-- Generator: Adobe Illustrator 18.1.1, SVG Export Plug-In . SVG Version: 6.00 Build 0)  -->

<svg
   xmlns:dc="http://purl.org/dc/elements/1.1/"
   xmlns:cc="http://creativecommons.org/ns#"
   xmlns:rdf="http://www.w3.org/1999/02/22-rdf-syntax-ns#"
   xmlns:svg="http://www.w3.org/2000/svg"
   xmlns="http://www.w3.org/2000/svg"
   xmlns:sodipodi="http://sodipodi.sourceforge.net/DTD/sodipodi-0.dtd"
   xmlns:inkscape="http://www.inkscape.org/namespaces/inkscape"
   version="1.1"
   id="Capa_1"
   x="0px"
   y="0px"
   viewBox="0 0 26 26"
   xml:space="preserve"
   sodipodi:docname="checked.svg"
   width="26"
   height="26"
   inkscape:version="0.92.5 (2060ec1f9f, 2020-04-08)"><metadata
   id="metadata4314"><rdf:RDF><cc:Work
       rdf:about=""><dc:format>image/svg+xml</dc:format><dc:type
         rdf:resource="http://purl.org/dc/dcmitype/StillImage" /><dc:title></dc:title></cc:Work></rdf:RDF></metadata><defs
   id="defs4312" /><sodipodi:namedview
   pagecolor="#ffffff"
   bordercolor="#666666"
   borderopacity="1"
   objecttolerance="10"
   gridtolerance="10"
   guidetolerance="10"
   inkscape:pageopacity="0"
   inkscape:pageshadow="2"
   inkscape:window-width="2560"
   inkscape:window-height="1312"
   id="namedview4310"
   showgrid="false"
   inkscape:zoom="33.15625"
   inkscape:cx="8.8520264"
   inkscape:cy="16"
   inkscape:window-x="0"
   inkscape:window-y="54"
   inkscape:window-maximized="1"
   inkscape:current-layer="g4277" />
<g
   id="g4277"
   transform="matrix(0.81621112,0,0,0.81621112,0,-0.1187559)">
	<g
   id="check_x5F_alt"
   style="fill:#508b32;fill-opacity:1">
		<path
   style="fill:#508b32;fill-opacity:1"
   d="M 16,0 C 7.164,0 0,7.164 0,16 0,24.836 7.164,32 16,32 24.836,32 32,24.836 32,16 32,7.164 24.836,0 16,0 Z m -2.48,23.383 -7.362,-7.363 2.828,-2.828 4.533,4.535 9.617,-9.617 2.828,2.828 z"
   id="path4274"
   inkscape:connector-curvature="0" />
	</g>
</g>
<g
   id="g4279"
   transform="translate(0,-6)">
</g>
<g
   id="g4281"
   transform="translate(0,-6)">
</g>
<g
   id="g4283"
   transform="translate(0,-6)">
</g>
<g
   id="g4285"
   transform="translate(0,-6)">
</g>
<g
   id="g4287"
   transform="translate(0,-6)">
</g>
<g
   id="g4289"
   transform="translate(0,-6)">
</g>
<g
   id="g4291"
   transform="translate(0,-6)">
</g>
<g
   id="g4293"
   transform="translate(0,-6)">
</g>
<g
   id="g4295"
   transform="translate(0,-6)">
</g>
<g
   id="g4297"
   transform="translate(0,-6)">
</g>
<g
   id="g4299"
   transform="translate(0,-6)">
</g>
<g
   id="g4301"
   transform="translate(0,-6)">
</g>
<g
   id="g4303"
   transform="translate(0,-6)">
</g>
<g
   id="g4305"
   transform="translate(0,-6)">
</g>
<g
   id="g4307"
   transform="translate(0,-6)">
</g>
</svg>