<?xml version="1.0" encoding="UTF-8" standalone="no"?>
<!-- Generator: Adobe Illustrator 23.0.6, SVG Export Plug-In . SVG Version: 6.00 Build 0)  -->

<svg
   xmlns:dc="http://purl.org/dc/elements/1.1/"
   xmlns:cc="http://creativecommons.org/ns#"
   xmlns:rdf="http://www.w3.org/1999/02/22-rdf-syntax-ns#"
   xmlns:svg="http://www.w3.org/2000/svg"
   xmlns="http://www.w3.org/2000/svg"
   xmlns:sodipodi="http://sodipodi.sourceforge.net/DTD/sodipodi-0.dtd"
   xmlns:inkscape="http://www.inkscape.org/namespaces/inkscape"
   version="1.1"
   id="Layer_1"
   x="0px"
   y="0px"
   viewBox="0 0 22.100002 25.399998"
   xml:space="preserve"
   sodipodi:docname="password.svg"
   width="22.1"
   height="25.4"
   inkscape:version="0.92.5 (2060ec1f9f, 2020-04-08)"><metadata
   id="metadata4053"><rdf:RDF><cc:Work
       rdf:about=""><dc:format>image/svg+xml</dc:format><dc:type
         rdf:resource="http://purl.org/dc/dcmitype/StillImage" /><dc:title></dc:title></cc:Work></rdf:RDF></metadata><defs
   id="defs4051" /><sodipodi:namedview
   pagecolor="#ffffff"
   bordercolor="#666666"
   borderopacity="1"
   objecttolerance="10"
   gridtolerance="10"
   guidetolerance="10"
   inkscape:pageopacity="0"
   inkscape:pageshadow="2"
   inkscape:window-width="2560"
   inkscape:window-height="1312"
   id="namedview4049"
   showgrid="false"
   inkscape:zoom="13.034398"
   inkscape:cx="34.549999"
   inkscape:cy="37.631198"
   inkscape:window-x="0"
   inkscape:window-y="54"
   inkscape:window-maximized="1"
   inkscape:current-layer="Layer_1" />
<style
   type="text/css"
   id="style4044">
	.st0{fill:#808080;}
</style>
<path
   class="st0"
   d="M 17.90381,10.944851 V 6.0630204 5.9453858 c -0.23527,-2.0586031 -1.999789,-5.99935722 -7.058075,-5.99935722 -5.0582867,0 -6.8228052,4.05838862 -7.0580743,6.23462682 V 10.944851 H 0.25862363 V 25.413902 H 21.962202 V 10.944851 Z M 6.0815351,6.3571064 c 0.058818,-0.6469886 0.7646246,-4.0583882 4.7053829,-4.0583882 3.999575,0 4.646565,3.2349476 4.705383,3.8231192 V 10.944851 H 6.0815351 Z M 12.25735,19.296905 13.080792,21.12024 H 9.3164857 l 0.5881729,-1.882153 c -0.7058075,-0.41172 -1.235163,-1.235162 -1.235163,-2.117421 0,-1.352798 1.1175284,-2.411509 2.4115084,-2.411509 1.293981,0 2.411509,1.117527 2.411509,2.411509 0.05882,0.941075 -0.470538,1.764517 -1.235163,2.176239 z"
   id="path4046"
   inkscape:connector-curvature="0"
   style="fill:#808080;stroke-width:0.58817285" />
</svg>